<svg xmlns="http://www.w3.org/2000/svg" width="217" height="30" viewBox="0 0 217 30" fill="none"><g id="logo"><path d="M45.1305 19.5822C45.9085 19.5822 46.8421 19.4123 47.9313 19.0724V22.3797C46.8227 22.875 45.4611 23.1229 43.8468 23.1229C42.0671 23.1229 40.7689 22.6761 39.952 21.7823C39.1448 20.8789 38.7411 19.5289 38.7411 17.7318V9.87858H36.6114V7.99906L39.0621 6.51285L40.3458 3.0742H43.1903V6.54194H47.7563V9.87858H43.1903V17.7318C43.1903 18.3633 43.3654 18.8295 43.7155 19.1305C44.0753 19.4317 44.547 19.5822 45.1305 19.5822ZM60.3451 6.2361C60.9482 6.2361 61.449 6.27973 61.8476 6.3672L61.5121 10.5341C61.1523 10.4371 60.7148 10.3885 60.1993 10.3885C58.7795 10.3885 57.6709 10.7527 56.8734 11.4813C56.0857 12.2098 55.6919 13.2298 55.6919 14.541V22.8314H51.2425V6.54194H54.6122L55.2688 9.28123H55.4876C55.9932 8.36813 56.674 7.63483 57.5297 7.08111C58.3954 6.5177 59.3338 6.2361 60.3451 6.2361ZM76.3623 22.8314L75.7642 20.7478H75.5308C75.0543 21.5056 74.3784 22.0932 73.503 22.5108C72.6279 22.9189 71.631 23.1229 70.5127 23.1229C68.5968 23.1229 67.1527 22.6128 66.1801 21.5929C65.2076 20.5634 64.7214 19.0869 64.7214 17.1635V6.54194H69.1706V16.0563C69.1706 17.2316 69.3797 18.1156 69.7977 18.7081C70.216 19.2909 70.8822 19.5822 71.7964 19.5822C73.0411 19.5822 73.9407 19.1695 74.4951 18.3437C75.0492 17.5084 75.3265 16.129 75.3265 14.2059V6.54194H79.7757V22.8314H76.3623ZM95.822 17.994C95.822 19.6649 95.2385 20.9373 94.0713 21.8114C92.9142 22.6857 91.1783 23.1229 88.8637 23.1229C87.6773 23.1229 86.6658 23.0403 85.8295 22.875C84.9932 22.7197 84.2103 22.4866 83.4809 22.1757V18.5041C84.3075 18.8926 85.2363 19.218 86.2672 19.4802C87.3077 19.7424 88.2217 19.8737 89.0095 19.8737C90.6239 19.8737 91.4311 19.4075 91.4311 18.475C91.4311 18.1253 91.3241 17.8435 91.1101 17.6298C90.8961 17.4064 90.5266 17.1587 90.0015 16.8868C89.4763 16.6052 88.7761 16.2797 87.901 15.9107C86.6464 15.386 85.7225 14.9004 85.1293 14.4535C84.5458 14.0067 84.1178 13.4968 83.8456 12.9237C83.5831 12.3409 83.4516 11.627 83.4516 10.782C83.4516 9.33456 84.0108 8.21764 85.1293 7.4308C86.2574 6.63426 87.8522 6.2361 89.914 6.2361C91.8784 6.2361 93.7893 6.66335 95.6468 7.51827L94.3047 10.7236C93.4878 10.3739 92.7245 10.0875 92.0146 9.86403C91.3047 9.64061 90.5802 9.5289 89.841 9.5289C88.5281 9.5289 87.8716 9.88343 87.8716 10.5925C87.8716 10.9906 88.0808 11.3355 88.499 11.627C88.9268 11.9183 89.8555 12.3506 91.2852 12.9237C92.5592 13.4384 93.4928 13.9194 94.086 14.3661C94.6792 14.8129 95.1167 15.3279 95.3988 15.9107C95.6808 16.4935 95.822 17.188 95.822 17.994ZM106.164 19.5822C106.942 19.5822 107.876 19.4123 108.965 19.0724V22.3797C107.857 22.875 106.495 23.1229 104.881 23.1229C103.101 23.1229 101.803 22.6761 100.986 21.7823C100.179 20.8789 99.775 19.5289 99.775 17.7318V9.87858H97.6453V7.99906L100.096 6.51285L101.38 3.0742H104.224V6.54194H108.79V9.87858H104.224V17.7318C104.224 18.3633 104.399 18.8295 104.749 19.1305C105.109 19.4317 105.581 19.5822 106.164 19.5822ZM121.292 9.87858H117.441V22.8314H112.991V9.87858H110.541V7.73664L112.991 6.54194V5.34724C112.991 3.49196 113.448 2.13686 114.362 1.28215C115.277 0.427398 116.74 0 118.753 0C120.29 0 121.656 0.228274 122.852 0.684802L121.714 3.94851C120.82 3.66691 119.993 3.5259 119.235 3.5259C118.603 3.5259 118.146 3.71539 117.863 4.09416C117.581 4.46323 117.441 4.93917 117.441 5.52198V6.54194H121.292V9.87858ZM134.216 22.8314L133.355 20.6167H133.239C132.49 21.5589 131.717 22.2147 130.919 22.5837C130.132 22.9431 129.101 23.1229 127.827 23.1229C126.261 23.1229 125.026 22.6761 124.121 21.7823C123.227 20.8886 122.78 19.6162 122.78 17.9649C122.78 16.2359 123.382 14.9634 124.588 14.1475C125.804 13.3219 127.632 12.8653 130.073 12.7781L132.903 12.6906V11.9767C132.903 10.3254 132.057 9.49981 130.365 9.49981C129.062 9.49981 127.53 9.89312 125.77 10.68L124.297 7.67846C126.174 6.69749 128.255 6.2068 130.54 6.2068C132.728 6.2068 134.406 6.68274 135.573 7.63483C136.74 8.58671 137.323 10.0339 137.323 11.9767V22.8314H134.216ZM132.903 15.284L131.182 15.3424C129.888 15.3812 128.926 15.6143 128.294 16.0418C127.661 16.469 127.345 17.1199 127.345 17.994C127.345 19.2471 128.065 19.8737 129.504 19.8737C130.535 19.8737 131.357 19.5774 131.969 18.9849C132.592 18.3924 132.903 17.6055 132.903 16.6246V15.284ZM148.541 23.1229C143.465 23.1229 140.926 20.34 140.926 14.7741C140.926 12.0058 141.617 9.89312 142.998 8.436C144.379 6.9694 146.358 6.2361 148.935 6.2361C150.821 6.2361 152.513 6.60517 154.011 7.34332L152.698 10.782C151.998 10.5002 151.346 10.2719 150.744 10.0972C150.141 9.91251 149.538 9.82019 148.935 9.82019C146.62 9.82019 145.463 11.4617 145.463 14.7451C145.463 17.931 146.62 19.5241 148.935 19.5241C149.791 19.5241 150.583 19.4123 151.312 19.1889C152.042 18.9558 152.771 18.5964 153.501 18.1106V21.9135C152.781 22.37 152.052 22.6857 151.312 22.8605C150.583 23.0354 149.659 23.1229 148.541 23.1229ZM164.164 19.5822C164.942 19.5822 165.876 19.4123 166.965 19.0724V22.3797C165.856 22.875 164.495 23.1229 162.88 23.1229C161.101 23.1229 159.802 22.6761 158.986 21.7823C158.178 20.8789 157.775 19.5289 157.775 17.7318V9.87858H155.645V7.99906L158.096 6.51285L159.379 3.0742H162.224V6.54194H166.79V9.87858H162.224V17.7318C162.224 18.3633 162.399 18.8295 162.749 19.1305C163.109 19.4317 163.581 19.5822 164.164 19.5822ZM173.821 14.6576C173.821 16.27 174.083 17.489 174.609 18.3146C175.143 19.1402 176.009 19.5531 177.205 19.5531C178.392 19.5531 179.243 19.1451 179.758 18.3291C180.283 17.5035 180.546 16.2797 180.546 14.6576C180.546 13.0451 180.283 11.8359 179.758 11.0296C179.233 10.2234 178.372 9.82019 177.176 9.82019C175.989 9.82019 175.134 10.2234 174.609 11.0296C174.083 11.8262 173.821 13.0354 173.821 14.6576ZM185.097 14.6576C185.097 17.3094 184.397 19.383 182.997 20.8789C181.596 22.3748 179.646 23.1229 177.147 23.1229C175.581 23.1229 174.2 22.7829 173.004 22.1029C171.808 21.4133 170.889 20.4272 170.247 19.1451C169.605 17.8629 169.284 16.3672 169.284 14.6576C169.284 11.9961 169.98 9.92706 171.37 8.45076C172.761 6.97425 174.716 6.2361 177.234 6.2361C178.8 6.2361 180.181 6.57609 181.377 7.25585C182.573 7.93582 183.492 8.91215 184.134 10.1844C184.776 11.4569 185.097 12.9479 185.097 14.6576ZM197.876 6.2361C198.478 6.2361 198.98 6.27973 199.379 6.3672L199.043 10.5341C198.683 10.4371 198.246 10.3885 197.729 10.3885C196.311 10.3885 195.201 10.7527 194.403 11.4813C193.616 12.2098 193.223 13.2298 193.223 14.541V22.8314H188.773V6.54194H192.143L192.799 9.28123H193.018C193.523 8.36813 194.205 7.63483 195.059 7.08111C195.927 6.5177 196.864 6.2361 197.876 6.2361ZM200.006 6.54194H204.878L207.955 15.7066C208.219 16.5032 208.398 17.4453 208.495 18.5332H208.582C208.69 17.5328 208.899 16.5904 209.211 15.7066L212.231 6.54194H217L210.099 24.9149C209.468 26.6147 208.563 27.8871 207.388 28.7324C206.221 29.5774 204.853 30 203.287 30C202.519 30 201.766 29.9174 201.027 29.7521V26.2262C201.561 26.3525 202.146 26.4157 202.777 26.4157C203.564 26.4157 204.25 26.1729 204.834 25.6872C205.427 25.2111 205.889 24.4875 206.221 23.5162L206.482 22.7148L200.006 6.54194Z" fill="white"></path><path d="M19.6562 1.62022C19.5711 1.63877 19.4411 1.68662 19.3641 1.72645C19.1864 1.81688 18.9184 2.08499 18.8283 2.2631C18.6717 2.57105 18.6797 2.26036 18.6797 7.99735C18.6797 10.8951 18.6717 13.2643 18.6637 13.2643C18.6557 13.2643 16.9761 12.1992 14.9331 10.8977C12.8927 9.59885 11.1679 8.50997 11.1017 8.48341C10.6374 8.28148 10.0881 8.3932 9.72194 8.75953C9.63162 8.84995 9.52822 8.98548 9.48854 9.06242C9.34251 9.35203 9.33977 9.37311 9.33977 11.397C9.33977 12.425 9.33196 13.2643 9.32394 13.2643C9.31592 13.2643 7.63634 12.1992 5.59335 10.8977C3.55291 9.59885 1.82822 8.50997 1.76189 8.48341C1.29756 8.28148 0.748317 8.3932 0.382159 8.75953C0.291943 8.84995 0.188455 8.98548 0.148654 9.06242C-0.00788777 9.37311 6.77206e-05 8.86597 6.77206e-05 16.8764C6.77206e-05 24.8871 -0.00788777 24.3798 0.148654 24.6905C0.23887 24.8684 0.506857 25.1367 0.684629 25.2269C0.997734 25.3862 0.00802516 25.3757 13.5853 25.3757C27.1623 25.3757 26.1728 25.3862 26.4857 25.2269C26.6636 25.1367 26.9317 24.8684 27.0218 24.6905C27.1809 24.377 27.1703 25.2058 27.1703 13.4768C27.1703 1.74774 27.1809 2.57632 27.0218 2.2631C26.9317 2.08499 26.6636 1.81688 26.4857 1.72645C26.1859 1.57511 26.2895 1.57764 22.9117 1.58038C20.3591 1.58312 19.7807 1.58839 19.6562 1.62022Z" fill="white"></path></g></svg>